<svg width="22" height="21" viewBox="0 0 22 21" fill="none" xmlns="http://www.w3.org/2000/svg">
<path d="M21.9885 10.4785C21.9885 11.1816 21.4156 11.7324 20.7663 11.7324H19.5441L19.5708 17.9902C19.5708 18.0957 19.5632 18.2012 19.5517 18.3066V18.9395C19.5517 19.8027 18.8681 20.502 18.024 20.502H17.4128C17.3708 20.502 17.3288 20.502 17.2868 20.498C17.2333 20.502 17.1799 20.502 17.1264 20.502L15.8851 20.498H14.9684C14.1243 20.498 13.4406 19.7988 13.4406 18.9355V17.998V15.498C13.4406 14.8066 12.8944 14.248 12.2184 14.248H9.77396C9.09792 14.248 8.55174 14.8066 8.55174 15.498V17.998V18.9355C8.55174 19.7988 7.86806 20.498 7.02396 20.498H6.10729H4.88889C4.8316 20.498 4.77431 20.4941 4.71701 20.4902C4.67118 20.4941 4.62535 20.498 4.57951 20.498H3.9684C3.12431 20.498 2.44063 19.7988 2.44063 18.9355V14.5605C2.44063 14.5254 2.44062 14.4863 2.44444 14.4512V11.7285H1.22222C0.534722 11.7285 0 11.1816 0 10.4746C0 10.123 0.114583 9.81055 0.381944 9.53711L10.1712 0.810547C10.4385 0.537109 10.7441 0.498047 11.0115 0.498047C11.2788 0.498047 11.5844 0.576172 11.8135 0.771484L21.5684 9.54102C21.874 9.81445 22.0267 10.127 21.9885 10.4785Z" fill="white"/>
</svg>
