<svg width="42" height="24" viewBox="0 0 42 24" fill="none" xmlns="http://www.w3.org/2000/svg">
<path d="M41.5593 13.0598C42.1453 12.4738 42.1453 11.5223 41.5593 10.9363L34.0593 3.43633C33.4734 2.85039 32.5218 2.85039 31.9359 3.43633C31.35 4.02226 31.35 4.97383 31.9359 5.55977L36.8812 10.5004L2 10.5004C1.17031 10.5004 0.500001 11.1703 0.500001 12C0.500001 12.8297 1.17031 13.5004 2 13.5004L36.8765 13.5004L31.9406 18.441C31.3546 19.027 31.3546 19.9785 31.9406 20.5645C32.5265 21.1504 33.4781 21.1504 34.064 20.5645L41.564 13.0645L41.5593 13.0598Z" fill="black"/>
</svg>
