<svg width="20" height="20" viewBox="0 0 20 20" fill="none" xmlns="http://www.w3.org/2000/svg">
<path d="M19.5 5.80863V5.81V14.19C19.5 15.9105 18.9888 17.2237 18.1057 18.1064C17.2226 18.989 15.9086 19.5 14.1871 19.5H5.8129C4.09136 19.5 2.7775 18.989 1.89445 18.1053C1.01137 17.2216 0.5 15.9059 0.5 14.18V5.81C0.5 4.08951 1.01115 2.77628 1.89423 1.89364C2.77734 1.01097 4.09135 0.5 5.8129 0.5H14.1971C15.9187 0.5 17.2325 1.01101 18.1143 1.89342C18.9959 2.77569 19.5047 4.08845 19.5 5.80863Z" stroke="black"/>
<path d="M8.60018 13.7129C8.40123 13.7127 8.2105 13.6336 8.06991 13.4929L5.2385 10.6629C5.09895 10.5218 5.02069 10.3313 5.02069 10.1329C5.02069 9.93448 5.09895 9.74405 5.2385 9.60291C5.52865 9.31291 6.00888 9.31291 6.29903 9.60291L8.60018 11.9029L13.7427 6.76291C14.0329 6.47291 14.5131 6.47291 14.8033 6.76291C15.0934 7.05291 15.0934 7.53291 14.8033 7.82291L9.13044 13.4929C8.98985 13.6336 8.79912 13.7127 8.60018 13.7129Z" fill="black"/>
</svg>
