<svg width="35" height="40" viewBox="0 0 35 40" fill="none" xmlns="http://www.w3.org/2000/svg">
<path d="M17.4983 0C16.1154 0 14.9983 1.11719 14.9983 2.5V4C9.29513 5.15625 4.99825 10.2031 4.99825 16.25V18.2344C4.99825 21.7812 3.78732 25.2266 1.57638 27.9922L0.412316 29.4531C-0.0408095 30.0156 -0.126747 30.7891 0.185753 31.4375C0.498253 32.0859 1.1545 32.5 1.87325 32.5H33.1233C33.842 32.5 34.4983 32.0859 34.8108 31.4375C35.1233 30.7891 35.0373 30.0156 34.5842 29.4531L33.4201 28C31.2092 25.2266 29.9983 21.7812 29.9983 18.2344V16.25C29.9983 10.2031 25.7014 5.15625 19.9983 4V2.5C19.9983 1.11719 18.8811 0 17.4983 0ZM17.4983 7.5C22.3342 7.5 26.2483 11.4141 26.2483 16.25V18.2344C26.2483 21.9766 27.3342 25.625 29.3498 28.75H5.64669C7.66232 25.625 8.74825 21.9766 8.74825 18.2344V16.25C8.74825 11.4141 12.6623 7.5 17.4983 7.5ZM22.4983 35H17.4983H12.4983C12.4983 36.3281 13.0217 37.6016 13.9592 38.5391C14.8967 39.4766 16.1701 40 17.4983 40C18.8264 40 20.0998 39.4766 21.0373 38.5391C21.9748 37.6016 22.4983 36.3281 22.4983 35Z" fill="white"/>
</svg>
