<svg width="34" height="39" viewBox="0 0 34 39" fill="none" xmlns="http://www.w3.org/2000/svg">
<path d="M17 0C15.6566 0 14.5712 1.08926 14.5712 2.4375V3.9C9.03045 5.02734 4.85593 9.94805 4.85593 15.8438V17.7785C4.85593 21.2367 3.67947 24.5959 1.53149 27.2924L0.400575 28.7168C-0.0396474 29.2652 -0.123138 30.0193 0.180464 30.6516C0.484066 31.2838 1.12163 31.6875 1.81991 31.6875H32.1801C32.8784 31.6875 33.5159 31.2838 33.8195 30.6516C34.1231 30.0193 34.0396 29.2652 33.5994 28.7168L32.4685 27.3C30.3205 24.5959 29.1441 21.2367 29.1441 17.7785V15.8438C29.1441 9.94805 24.9695 5.02734 19.4288 3.9V2.4375C19.4288 1.08926 18.3434 0 17 0ZM17 7.3125C21.6982 7.3125 25.5008 11.1287 25.5008 15.8438V17.7785C25.5008 21.4271 26.5559 24.9844 28.5141 28.0312H5.4859C7.44413 24.9844 8.49915 21.4271 8.49915 17.7785V15.8438C8.49915 11.1287 12.3018 7.3125 17 7.3125ZM21.8576 34.125H17H12.1424C12.1424 35.4199 12.6509 36.6615 13.5617 37.5756C14.4725 38.4896 15.7097 39 17 39C18.2903 39 19.5275 38.4896 20.4383 37.5756C21.3491 36.6615 21.8576 35.4199 21.8576 34.125Z" fill="#38A162"/>
</svg>
