<svg width="23" height="20" viewBox="0 0 23 20" fill="none" xmlns="http://www.w3.org/2000/svg">
<g clip-path="url(#clip0_774_6733)">
<path d="M11.3333 1.25C8.1537 1.25 5.60763 2.6875 3.75416 4.39844C1.91249 6.09375 0.68078 8.125 0.0983724 9.51953C-0.0314887 9.82812 -0.0314887 10.1719 0.0983724 10.4805C0.68078 11.875 1.91249 13.9062 3.75416 15.6016C5.60763 17.3125 8.1537 18.75 11.3333 18.75C14.513 18.75 17.059 17.3125 18.9125 15.6016C20.7542 13.9023 21.9859 11.875 22.5722 10.4805C22.7021 10.1719 22.7021 9.82812 22.5722 9.51953C21.9859 8.125 20.7542 6.09375 18.9125 4.39844C17.059 2.6875 14.513 1.25 11.3333 1.25ZM5.66666 10C5.66666 8.50816 6.26368 7.07742 7.32639 6.02252C8.38909 4.96763 9.83043 4.375 11.3333 4.375C12.8362 4.375 14.2776 4.96763 15.3403 6.02252C16.403 7.07742 17 8.50816 17 10C17 11.4918 16.403 12.9226 15.3403 13.9775C14.2776 15.0324 12.8362 15.625 11.3333 15.625C9.83043 15.625 8.38909 15.0324 7.32639 13.9775C6.26368 12.9226 5.66666 11.4918 5.66666 10ZM11.3333 7.5C11.3333 8.87891 10.2039 10 8.81481 10C8.53541 10 8.26782 9.95312 8.01597 9.87109C7.79953 9.80078 7.54768 9.93359 7.55555 10.1602C7.56735 10.4297 7.60671 10.6992 7.68147 10.9687C8.2206 12.9687 10.2944 14.1563 12.3093 13.6211C14.3241 13.0859 15.5204 11.0273 14.9812 9.02734C14.5444 7.40625 13.1002 6.31641 11.4947 6.25C11.2664 6.24219 11.1326 6.48828 11.2035 6.70703C11.2861 6.95703 11.3333 7.22266 11.3333 7.5Z" fill="#484848"/>
</g>
<defs>
<clipPath id="clip0_774_6733">
<rect width="22.6667" height="20" fill="white"/>
</clipPath>
</defs>
</svg>
