<svg width="34" height="34" viewBox="0 0 34 34" fill="none" xmlns="http://www.w3.org/2000/svg">
<path d="M33.1679 4.84007C34.2744 3.73351 34.2744 1.93647 33.1679 0.829916C32.0613 -0.276639 30.2643 -0.276639 29.1577 0.829916L0.829916 29.1577C-0.276639 30.2643 -0.276639 32.0613 0.829916 33.1679C1.93647 34.2744 3.73352 34.2744 4.84007 33.1679L33.1679 4.84007ZM11.3378 5.6722C11.3378 4.1696 10.7409 2.72854 9.67835 1.66604C8.61586 0.603544 7.1748 0.00663906 5.6722 0.00663906C4.1696 0.00663906 2.72854 0.603544 1.66604 1.66604C0.603545 2.72854 0.00663931 4.1696 0.00663931 5.6722C0.00663931 7.1748 0.603545 8.61586 1.66604 9.67835C2.72854 10.7409 4.1696 11.3378 5.6722 11.3378C7.1748 11.3378 8.61586 10.7409 9.67835 9.67835C10.7409 8.61586 11.3378 7.1748 11.3378 5.6722ZM34 28.3344C34 26.8318 33.4031 25.3908 32.3406 24.3283C31.2781 23.2658 29.837 22.6689 28.3344 22.6689C26.8318 22.6689 25.3908 23.2658 24.3283 24.3283C23.2658 25.3908 22.6689 26.8318 22.6689 28.3344C22.6689 29.837 23.2658 31.2781 24.3283 32.3406C25.3908 33.4031 26.8318 34 28.3344 34C29.837 34 31.2781 33.4031 32.3406 32.3406C33.4031 31.2781 34 29.837 34 28.3344Z" fill="white"/>
</svg>
