<svg width="32" height="57" viewBox="0 0 32 57" fill="none" xmlns="http://www.w3.org/2000/svg">
<path d="M16.0001 7.11116C18.9445 7.11116 21.3334 9.50003 21.3334 12.4445V30.7221C21.3334 32.6443 22.1223 34.2665 23.0334 35.4443C24.2001 36.9554 24.8889 38.8332 24.8889 40.8887C24.8889 45.7998 20.9112 49.7775 16.0001 49.7775C11.089 49.7775 7.11127 45.7998 7.11127 40.8887C7.11127 38.8332 7.80016 36.9554 8.96682 35.4554C9.87792 34.2776 10.6668 32.6554 10.6668 30.7332V12.4445C10.6668 9.50003 13.0557 7.11116 16.0001 7.11116ZM28.4445 12.4445C28.4445 5.57783 22.8778 9.15527e-05 16.0001 9.15527e-05C9.12237 9.15527e-05 3.55574 5.56672 3.55574 12.4445V30.711C3.55574 30.7221 3.54463 30.7443 3.53352 30.7777C3.5113 30.8443 3.44463 30.9554 3.34463 31.0888C1.24464 33.7999 0.000207901 37.1998 0.000207901 40.8776C0.000207901 49.7109 7.16683 56.8775 16.0001 56.8775C24.8334 56.8775 32 49.722 32 40.8887C32 37.1998 30.7556 33.7999 28.6556 31.0999C28.5556 30.9666 28.4889 30.8554 28.4667 30.7888C28.4556 30.7554 28.4445 30.7332 28.4445 30.7221V12.4445Z" fill="white"/>
<path d="M10.6663 41.111C10.6663 44.0554 13.0552 46.4443 15.9996 46.4443C18.9441 46.4443 21.3329 44.0554 21.3329 41.111C21.3329 38.7888 19.8441 36.811 17.7774 36.0777V16.2223C17.7774 15.2445 16.9774 14.4445 15.9996 14.4445C15.0219 14.4445 14.2219 15.2445 14.2219 16.2223V36.0777C12.1552 36.811 10.6663 38.7888 10.6663 41.111Z" fill="white"/>
</svg>
