<svg width="22" height="22" viewBox="0 0 22 22" fill="none" xmlns="http://www.w3.org/2000/svg">
<rect width="22" height="22" rx="5" fill="white"/>
<path d="M11.8572 6.1875C11.8572 5.70352 11.4741 5.3125 11 5.3125C10.5259 5.3125 10.1429 5.70352 10.1429 6.1875V10.125H6.28573C5.81162 10.125 5.42859 10.516 5.42859 11C5.42859 11.484 5.81162 11.875 6.28573 11.875H10.1429V15.8125C10.1429 16.2965 10.5259 16.6875 11 16.6875C11.4741 16.6875 11.8572 16.2965 11.8572 15.8125V11.875H15.7143C16.1884 11.875 16.5714 11.484 16.5714 11C16.5714 10.516 16.1884 10.125 15.7143 10.125H11.8572V6.1875Z" fill="#484848"/>
</svg>
