<svg width="21" height="20" viewBox="0 0 21 20" fill="none" xmlns="http://www.w3.org/2000/svg">
<g clip-path="url(#clip0_774_6597)">
<path d="M14.25 5.00016V14.5835C14.25 16.4252 12.7584 17.9168 10.9167 17.9168C9.07504 17.9168 7.58337 16.4252 7.58337 14.5835V4.16683C7.58337 3.01683 8.51671 2.0835 9.66671 2.0835C10.8167 2.0835 11.75 3.01683 11.75 4.16683V12.9168C11.75 13.3752 11.375 13.7502 10.9167 13.7502C10.4584 13.7502 10.0834 13.3752 10.0834 12.9168V5.00016H8.83337V12.9168C8.83337 14.0668 9.76671 15.0002 10.9167 15.0002C12.0667 15.0002 13 14.0668 13 12.9168V4.16683C13 2.32516 11.5084 0.833496 9.66671 0.833496C7.82504 0.833496 6.33337 2.32516 6.33337 4.16683V14.5835C6.33337 17.1168 8.38337 19.1668 10.9167 19.1668C13.45 19.1668 15.5 17.1168 15.5 14.5835V5.00016H14.25Z" fill="black"/>
</g>
<defs>
<clipPath id="clip0_774_6597">
<rect width="20" height="20" fill="white" transform="translate(0.5)"/>
</clipPath>
</defs>
</svg>
